<svg width="73" height="50" viewBox="0 0 73 50" fill="none" xmlns="http://www.w3.org/2000/svg">
<line y1="-4" x2="72.0081" y2="-4" transform="matrix(0.999888 0.0149556 -0.0179646 0.999839 0 48.9231)" stroke="white" stroke-width="8"/>
<line y1="-4" x2="72.0081" y2="-4" transform="matrix(0.999888 0.0149556 -0.0179646 0.999839 0 48.9231)" stroke="white" stroke-width="8"/>
<line y1="-4" x2="72.0081" y2="-4" transform="matrix(0.999888 0.0149556 -0.0179646 0.999839 0 48.9231)" stroke="white" stroke-width="8"/>
<line y1="-4" x2="72.0081" y2="-4" transform="matrix(0.999888 0.0149556 -0.0179646 0.999839 0 48.9231)" stroke="white" stroke-width="8"/>
<line y1="-4" x2="72.0081" y2="-4" transform="matrix(0.999888 0.0149556 -0.0179646 0.999839 0 48.9231)" stroke="white" stroke-width="8"/>
<line y1="-4" x2="72.0081" y2="-4" transform="matrix(0.999888 0.0149556 -0.0179646 0.999839 0 48.9231)" stroke="white" stroke-width="8"/>
<line y1="-4" x2="72.0081" y2="-4" transform="matrix(0.999888 0.0149556 -0.0179646 0.999839 0 48.9231)" stroke="white" stroke-width="8"/>
<line y1="-4" x2="72.0081" y2="-4" transform="matrix(0.999888 0.0149556 -0.0179646 0.999839 0 8)" stroke="white" stroke-width="8"/>
<line y1="-4" x2="72.0081" y2="-4" transform="matrix(0.999888 0.0149556 -0.0179646 0.999839 0 8)" stroke="white" stroke-width="8"/>
<line y1="-4" x2="72.0081" y2="-4" transform="matrix(0.999888 0.0149556 -0.0179646 0.999839 0 8)" stroke="white" stroke-width="8"/>
<line y1="-4" x2="72.0081" y2="-4" transform="matrix(0.999888 0.0149556 -0.0179646 0.999839 0 8)" stroke="white" stroke-width="8"/>
<line y1="-4" x2="72.0081" y2="-4" transform="matrix(0.999888 0.0149556 -0.0179646 0.999839 0 8)" stroke="white" stroke-width="8"/>
<line y1="-4" x2="72.0081" y2="-4" transform="matrix(0.999888 0.0149556 -0.0179646 0.999839 0 8)" stroke="white" stroke-width="8"/>
<line y1="-4" x2="72.0081" y2="-4" transform="matrix(0.999888 0.0149556 -0.0179646 0.999839 0 8)" stroke="white" stroke-width="8"/>
<line y1="-4" x2="72.0081" y2="-4" transform="matrix(0.999888 0.0149556 -0.0179646 0.999839 0 28.4615)" stroke="white" stroke-width="8"/>
<line y1="-4" x2="72.0081" y2="-4" transform="matrix(0.999888 0.0149556 -0.0179646 0.999839 0 28.4615)" stroke="white" stroke-width="8"/>
<line y1="-4" x2="72.0081" y2="-4" transform="matrix(0.999888 0.0149556 -0.0179646 0.999839 0 28.4615)" stroke="white" stroke-width="8"/>
<line y1="-4" x2="72.0081" y2="-4" transform="matrix(0.999888 0.0149556 -0.0179646 0.999839 0 28.4615)" stroke="white" stroke-width="8"/>
<line y1="-4" x2="72.0081" y2="-4" transform="matrix(0.999888 0.0149556 -0.0179646 0.999839 0 28.4615)" stroke="white" stroke-width="8"/>
<line y1="-4" x2="72.0081" y2="-4" transform="matrix(0.999888 0.0149556 -0.0179646 0.999839 0 28.4615)" stroke="white" stroke-width="8"/>
<line y1="-4" x2="72.0081" y2="-4" transform="matrix(0.999888 0.0149556 -0.0179646 0.999839 0 28.4615)" stroke="white" stroke-width="8"/>
</svg>
